<?xml version="1.0" encoding="UTF-8"?>
<svg id="Layer_1" xmlns="http://www.w3.org/2000/svg" version="1.1" viewBox="0 0 252 144">
  <!-- Generator: Adobe Illustrator 29.8.2, SVG Export Plug-In . SVG Version: 2.1.1 Build 3)  -->
  <defs>
    <style>
      .st0 {
        fill: #d6b6ff;
      }

      .st1 {
        fill: #2c78ff;
      }

      .st2 {
        fill: #9633ff;
      }

      .st3 {
        fill: #777;
      }

      .st4 {
        fill: #231212;
      }

      .st5 {
        fill: #ffff97;
      }

      .st6 {
        fill: #ddd;
      }

      .st7 {
        fill: #fff;
      }

      .st8 {
        fill: #ffc5d4;
      }

      .st9 {
        fill: #00f49c;
      }

      .st10 {
        fill: #8db0ff;
      }

      .st11 {
        fill: #c7f2e2;
      }

      .st12 {
        fill: #8ff2cc;
      }

      .st13 {
        fill: #ff5f7e;
      }

      .st14 {
        fill: #ffa1b7;
      }

      .st15 {
        fill: #bbd4ff;
      }

      .st16 {
        fill: #b180ff;
      }

      .st17 {
        fill: #4c4c4c;
      }
    </style>
  </defs>
  <rect class="st7" width="252" height="144"/>
  <g>
    <g>
      <g>
        <polygon class="st9" points="76.8 18.9 66.7 8.8 60.9 8.8 71.2 18.8 65 25.5 70.8 25.5 76.8 18.9"/>
        <polygon class="st9" points="60.1 30.8 66 30.8 68.2 28.4 62.3 28.4 60.1 30.8"/>
      </g>
      <g>
        <polygon class="st9" points="100.3 18.9 90.3 8.8 84.5 8.8 94.8 18.8 88.5 25.5 94.3 25.5 100.3 18.9"/>
        <polygon class="st9" points="83.6 30.8 89.6 30.8 91.7 28.4 85.9 28.4 83.6 30.8"/>
      </g>
      <g>
        <polygon class="st9" points="88.5 18.9 78.5 8.8 72.7 8.8 83 18.8 76.8 25.5 82.6 25.5 88.5 18.9"/>
        <polygon class="st9" points="71.8 30.8 77.8 30.8 80 28.4 74.1 28.4 71.8 30.8"/>
      </g>
    </g>
    <path class="st4" d="M95.8,23.9l-1.5,1.6h-5.8l6.2-6.7h0s-10.3-10-10.3-10v6l4,4.1-4,4.5h0l-.3.3-1.7,1.8h-5.8l6.2-6.7h0s-10.3-10-10.3-10v6l4,4.1-4,4.5h0l-.5.6-1.4,1.5h-5.8l6.2-6.7h0s-10.3-10-10.3-10v14.8l4,3.9v.8h3.2l-2.2,2.4h-5.9v14.8h5.9l2.2-2.4v-2.9h2.6l1.1-1.2v6.5h5.9l2.2-2.4v-2.9h2.6l1.1-1.2v6.5h5.9l2.2-2.4v-2.9h2.6l6-6.6v-14.8l-4.5,5ZM77.8,30.8h-5.9l2.2-2.4h5.9l-2.2,2.4ZM89.6,30.8h-5.9l2.2-2.4h5.9l-2.2,2.4Z"/>
  </g>
  <g>
    <g>
      <g>
        <polygon class="st13" points="122.6 18.9 112.6 8.8 106.8 8.8 117 18.8 110.8 25.5 116.6 25.5 122.6 18.9"/>
        <polygon class="st13" points="105.9 30.8 111.8 30.8 114 28.4 108.1 28.4 105.9 30.8"/>
      </g>
      <g>
        <polygon class="st13" points="146.1 18.9 136.1 8.8 130.3 8.8 140.6 18.8 134.3 25.5 140.2 25.5 146.1 18.9"/>
        <polygon class="st13" points="129.4 30.8 135.4 30.8 137.5 28.4 131.7 28.4 129.4 30.8"/>
      </g>
      <g>
        <polygon class="st13" points="134.3 18.9 124.3 8.8 118.5 8.8 128.8 18.8 122.6 25.5 128.4 25.5 134.3 18.9"/>
        <polygon class="st13" points="117.7 30.8 123.6 30.8 125.8 28.4 119.9 28.4 117.7 30.8"/>
      </g>
    </g>
    <path class="st5" d="M141.6,23.9l-1.5,1.6h-5.8l6.2-6.7h0s-10.3-10-10.3-10v6l4,4.1-4,4.5h0l-.3.3-1.7,1.8h-5.8l6.2-6.7h0s-10.3-10-10.3-10v6l4,4.1-4,4.5h0l-.5.6-1.4,1.5h-5.8l6.2-6.7h0s-10.3-10-10.3-10v14.8l4,3.9v.8h3.2l-2.2,2.4h-5.9v14.8h5.9l2.2-2.4v-2.9h2.6l1.1-1.2v6.5h5.9l2.2-2.4v-2.9h2.6l1.1-1.2v6.5h5.9l2.2-2.4v-2.9h2.6l6-6.6v-14.8l-4.5,5ZM123.6,30.8h-5.9l2.2-2.4h5.9l-2.2,2.4ZM135.4,30.8h-5.9l2.2-2.4h5.9l-2.2,2.4Z"/>
  </g>
  <g>
    <g>
      <g>
        <polygon class="st13" points="168.4 18.9 158.4 8.8 152.6 8.8 162.8 18.8 156.6 25.5 162.4 25.5 168.4 18.9"/>
        <polygon class="st13" points="151.7 30.8 157.6 30.8 159.8 28.4 153.9 28.4 151.7 30.8"/>
      </g>
      <g>
        <polygon class="st13" points="191.9 18.9 181.9 8.8 176.1 8.8 186.4 18.8 180.2 25.5 186 25.5 191.9 18.9"/>
        <polygon class="st13" points="175.2 30.8 181.2 30.8 183.4 28.4 177.5 28.4 175.2 30.8"/>
      </g>
      <g>
        <polygon class="st13" points="180.2 18.9 170.1 8.8 164.3 8.8 174.6 18.8 168.4 25.5 174.2 25.5 180.2 18.9"/>
        <polygon class="st13" points="163.5 30.8 169.4 30.8 171.6 28.4 165.7 28.4 163.5 30.8"/>
      </g>
    </g>
    <path class="st2" d="M187.4,23.9l-1.5,1.6h-5.8l6.2-6.7h0s-10.3-10-10.3-10v6l4,4.1-4,4.5h0l-.3.3-1.7,1.8h-5.8l6.2-6.7h0s-10.3-10-10.3-10v6l4,4.1-4,4.5h0l-.5.6-1.4,1.5h-5.8l6.2-6.7h0s-10.3-10-10.3-10v14.8l4,3.9v.8h3.2l-2.2,2.4h-5.9v14.8h5.9l2.2-2.4v-2.9h2.6l1.1-1.2v6.5h5.9l2.2-2.4v-2.9h2.6l1.1-1.2v6.5h5.9l2.2-2.4v-2.9h2.6l6-6.6v-14.8l-4.5,5ZM169.4,30.8h-5.9l2.2-2.4h5.9l-2.2,2.4ZM181.2,30.8h-5.9l2.2-2.4h5.9l-2.2,2.4Z"/>
  </g>
  <g>
    <g>
      <g>
        <polygon class="st2" points="31 18.9 20.9 8.8 15.1 8.8 25.4 18.8 19.2 25.5 25 25.5 31 18.9"/>
        <polygon class="st2" points="14.3 30.8 20.2 30.8 22.4 28.4 16.5 28.4 14.3 30.8"/>
      </g>
      <g>
        <polygon class="st2" points="54.5 18.9 44.5 8.8 38.7 8.8 48.9 18.8 42.7 25.5 48.5 25.5 54.5 18.9"/>
        <polygon class="st2" points="37.8 30.8 43.7 30.8 45.9 28.4 40 28.4 37.8 30.8"/>
      </g>
      <g>
        <polygon class="st2" points="42.7 18.9 32.7 8.8 26.9 8.8 37.2 18.8 31 25.5 36.8 25.5 42.7 18.9"/>
        <polygon class="st2" points="26 30.8 32 30.8 34.2 28.4 28.3 28.4 26 30.8"/>
      </g>
    </g>
    <path class="st9" d="M50,23.9l-1.5,1.6h-5.8l6.2-6.7h0s-10.3-10-10.3-10v6l4,4.1-4,4.5h0l-.3.3-1.7,1.8h-5.8l6.2-6.7h0s-10.3-10-10.3-10v6l4,4.1-4,4.5h0l-.5.6-1.4,1.5h-5.8l6.2-6.7h0s-10.3-10-10.3-10v14.8l4,3.9v.8h3.2l-2.2,2.4h-5.9v14.8h5.9l2.2-2.4v-2.9h2.6l1.1-1.2v6.5h5.9l2.2-2.4v-2.9h2.6l1.1-1.2v6.5h5.9l2.2-2.4v-2.9h2.6l6-6.6v-14.8l-4.5,5ZM32,30.8h-5.9l2.2-2.4h5.9l-2.2,2.4ZM43.7,30.8h-5.9l2.2-2.4h5.9l-2.2,2.4Z"/>
  </g>
  <g>
    <g>
      <g>
        <polygon class="st2" points="214.2 18.9 204.2 8.8 198.4 8.8 208.6 18.8 202.4 25.5 208.2 25.5 214.2 18.9"/>
        <polygon class="st2" points="197.5 30.8 203.4 30.8 205.6 28.4 199.7 28.4 197.5 30.8"/>
      </g>
      <g>
        <polygon class="st2" points="237.7 18.9 227.7 8.8 221.9 8.8 232.2 18.8 226 25.5 231.8 25.5 237.7 18.9"/>
        <polygon class="st2" points="221 30.8 227 30.8 229.2 28.4 223.3 28.4 221 30.8"/>
      </g>
      <g>
        <polygon class="st2" points="226 18.9 216 8.8 210.2 8.8 220.4 18.8 214.2 25.5 220 25.5 226 18.9"/>
        <polygon class="st2" points="209.3 30.8 215.2 30.8 217.4 28.4 211.5 28.4 209.3 30.8"/>
      </g>
    </g>
    <path class="st9" d="M233.3,23.9l-1.5,1.6h-5.8l6.2-6.7h0s-10.3-10-10.3-10v6l4,4.1-4,4.5h0l-.3.3-1.7,1.8h-5.8l6.2-6.7h0s-10.3-10-10.3-10v6l4,4.1-4,4.5h0l-.5.6-1.4,1.5h-5.8l6.2-6.7h0s-10.3-10-10.3-10v14.8l4,3.9v.8h3.2l-2.2,2.4h-5.9v14.8h5.9l2.2-2.4v-2.9h2.6l1.1-1.2v6.5h5.9l2.2-2.4v-2.9h2.6l1.1-1.2v6.5h5.9l2.2-2.4v-2.9h2.6l6-6.6v-14.8l-4.5,5ZM215.2,30.8h-5.9l2.2-2.4h5.9l-2.2,2.4ZM227,30.8h-5.9l2.2-2.4h5.9l-2.2,2.4Z"/>
  </g>
  <g>
    <g>
      <g>
        <polygon class="st13" points="76.8 108.5 66.7 98.4 60.9 98.4 71.2 108.4 65 115.1 70.8 115.1 76.8 108.5"/>
        <polygon class="st13" points="60.1 120.4 66 120.4 68.2 118 62.3 118 60.1 120.4"/>
      </g>
      <g>
        <polygon class="st13" points="100.3 108.5 90.3 98.4 84.5 98.4 94.8 108.4 88.5 115.1 94.3 115.1 100.3 108.5"/>
        <polygon class="st13" points="83.6 120.4 89.6 120.4 91.7 118 85.9 118 83.6 120.4"/>
      </g>
      <g>
        <polygon class="st13" points="88.5 108.5 78.5 98.4 72.7 98.4 83 108.4 76.8 115.1 82.6 115.1 88.5 108.5"/>
        <polygon class="st13" points="71.8 120.4 77.8 120.4 80 118 74.1 118 71.8 120.4"/>
      </g>
    </g>
    <path class="st2" d="M95.8,113.5l-1.5,1.6h-5.8l6.2-6.7h0s-10.3-10-10.3-10v6l4,4.1-4,4.5h0l-.3.3-1.7,1.8h-5.8l6.2-6.7h0s-10.3-10-10.3-10v6l4,4.1-4,4.5h0l-.5.6-1.4,1.5h-5.8l6.2-6.7h0s-10.3-10-10.3-10v14.8l4,3.9v.8h3.2l-2.2,2.4h-5.9v14.8h5.9l2.2-2.4v-2.9h2.6l1.1-1.2v6.5h5.9l2.2-2.4v-2.9h2.6l1.1-1.2v6.5h5.9l2.2-2.4v-2.9h2.6l6-6.6v-14.8l-4.5,5ZM77.8,120.4h-5.9l2.2-2.4h5.9l-2.2,2.4ZM89.6,120.4h-5.9l2.2-2.4h5.9l-2.2,2.4Z"/>
  </g>
  <g>
    <g>
      <g>
        <polygon class="st13" points="122.6 108.5 112.6 98.4 106.8 98.4 117 108.4 110.8 115.1 116.6 115.1 122.6 108.5"/>
        <polygon class="st13" points="105.9 120.4 111.8 120.4 114 118 108.1 118 105.9 120.4"/>
      </g>
      <g>
        <polygon class="st13" points="146.1 108.5 136.1 98.4 130.3 98.4 140.6 108.4 134.3 115.1 140.2 115.1 146.1 108.5"/>
        <polygon class="st13" points="129.4 120.4 135.4 120.4 137.5 118 131.7 118 129.4 120.4"/>
      </g>
      <g>
        <polygon class="st13" points="134.3 108.5 124.3 98.4 118.5 98.4 128.8 108.4 122.6 115.1 128.4 115.1 134.3 108.5"/>
        <polygon class="st13" points="117.7 120.4 123.6 120.4 125.8 118 119.9 118 117.7 120.4"/>
      </g>
    </g>
    <path class="st5" d="M141.6,113.5l-1.5,1.6h-5.8l6.2-6.7h0s-10.3-10-10.3-10v6l4,4.1-4,4.5h0l-.3.3-1.7,1.8h-5.8l6.2-6.7h0s-10.3-10-10.3-10v6l4,4.1-4,4.5h0l-.5.6-1.4,1.5h-5.8l6.2-6.7h0s-10.3-10-10.3-10v14.8l4,3.9v.8h3.2l-2.2,2.4h-5.9v14.8h5.9l2.2-2.4v-2.9h2.6l1.1-1.2v6.5h5.9l2.2-2.4v-2.9h2.6l1.1-1.2v6.5h5.9l2.2-2.4v-2.9h2.6l6-6.6v-14.8l-4.5,5ZM123.6,120.4h-5.9l2.2-2.4h5.9l-2.2,2.4ZM135.4,120.4h-5.9l2.2-2.4h5.9l-2.2,2.4Z"/>
  </g>
  <g>
    <g>
      <g>
        <polygon class="st9" points="168.4 108.5 158.4 98.4 152.6 98.4 162.8 108.4 156.6 115.1 162.4 115.1 168.4 108.5"/>
        <polygon class="st9" points="151.7 120.4 157.6 120.4 159.8 118 153.9 118 151.7 120.4"/>
      </g>
      <g>
        <polygon class="st9" points="191.9 108.5 181.9 98.4 176.1 98.4 186.4 108.4 180.2 115.1 186 115.1 191.9 108.5"/>
        <polygon class="st9" points="175.2 120.4 181.2 120.4 183.4 118 177.5 118 175.2 120.4"/>
      </g>
      <g>
        <polygon class="st9" points="180.2 108.5 170.1 98.4 164.3 98.4 174.6 108.4 168.4 115.1 174.2 115.1 180.2 108.5"/>
        <polygon class="st9" points="163.5 120.4 169.4 120.4 171.6 118 165.7 118 163.5 120.4"/>
      </g>
    </g>
    <path class="st4" d="M187.4,113.5l-1.5,1.6h-5.8l6.2-6.7h0s-10.3-10-10.3-10v6l4,4.1-4,4.5h0l-.3.3-1.7,1.8h-5.8l6.2-6.7h0s-10.3-10-10.3-10v6l4,4.1-4,4.5h0l-.5.6-1.4,1.5h-5.8l6.2-6.7h0s-10.3-10-10.3-10v14.8l4,3.9v.8h3.2l-2.2,2.4h-5.9v14.8h5.9l2.2-2.4v-2.9h2.6l1.1-1.2v6.5h5.9l2.2-2.4v-2.9h2.6l1.1-1.2v6.5h5.9l2.2-2.4v-2.9h2.6l6-6.6v-14.8l-4.5,5ZM169.4,120.4h-5.9l2.2-2.4h5.9l-2.2,2.4ZM181.2,120.4h-5.9l2.2-2.4h5.9l-2.2,2.4Z"/>
  </g>
  <g>
    <g>
      <polygon class="st2" points="31 108.5 20.9 98.4 15.1 98.4 25.4 108.4 19.2 115.1 25 115.1 31 108.5"/>
      <polygon class="st2" points="14.3 120.4 20.2 120.4 22.4 118 16.5 118 14.3 120.4"/>
    </g>
    <g>
      <polygon class="st2" points="54.5 108.5 44.5 98.4 38.7 98.4 48.9 108.4 42.7 115.1 48.5 115.1 54.5 108.5"/>
      <polygon class="st2" points="37.8 120.4 43.7 120.4 45.9 118 40 118 37.8 120.4"/>
    </g>
    <g>
      <polygon class="st2" points="42.7 108.5 32.7 98.4 26.9 98.4 37.2 108.4 31 115.1 36.8 115.1 42.7 108.5"/>
      <polygon class="st2" points="26 120.4 32 120.4 34.2 118 28.3 118 26 120.4"/>
    </g>
  </g>
  <path class="st9" d="M50,113.5l-1.5,1.6h-5.8l6.2-6.7h0s-10.3-10-10.3-10v6l4,4.1-4,4.5h0l-.3.3-1.7,1.8h-5.8l6.2-6.7h0s-10.3-10-10.3-10v6l4,4.1-4,4.5h0l-.5.6-1.4,1.5h-5.8l6.2-6.7h0s-10.3-10-10.3-10v14.8l4,3.9v.8h3.2l-2.2,2.4h-5.9v14.8h5.9l2.2-2.4v-2.9h2.6l1.1-1.2v6.5h5.9l2.2-2.4v-2.9h2.6l1.1-1.2v6.5h5.9l2.2-2.4v-2.9h2.6l6-6.6v-14.8l-4.5,5ZM32,120.4h-5.9l2.2-2.4h5.9l-2.2,2.4ZM43.7,120.4h-5.9l2.2-2.4h5.9l-2.2,2.4Z"/>
  <g>
    <g>
      <g>
        <polygon class="st2" points="214.2 108.5 204.2 98.4 198.4 98.4 208.6 108.4 202.4 115.1 208.2 115.1 214.2 108.5"/>
        <polygon class="st2" points="197.5 120.4 203.4 120.4 205.6 118 199.7 118 197.5 120.4"/>
      </g>
      <g>
        <polygon class="st2" points="237.7 108.5 227.7 98.4 221.9 98.4 232.2 108.4 226 115.1 231.8 115.1 237.7 108.5"/>
        <polygon class="st2" points="221 120.4 227 120.4 229.2 118 223.3 118 221 120.4"/>
      </g>
      <g>
        <polygon class="st2" points="226 108.5 216 98.4 210.2 98.4 220.4 108.4 214.2 115.1 220 115.1 226 108.5"/>
        <polygon class="st2" points="209.3 120.4 215.2 120.4 217.4 118 211.5 118 209.3 120.4"/>
      </g>
    </g>
    <path class="st9" d="M233.3,113.5l-1.5,1.6h-5.8l6.2-6.7h0s-10.3-10-10.3-10v6l4,4.1-4,4.5h0l-.3.3-1.7,1.8h-5.8l6.2-6.7h0s-10.3-10-10.3-10v6l4,4.1-4,4.5h0l-.5.6-1.4,1.5h-5.8l6.2-6.7h0s-10.3-10-10.3-10v14.8l4,3.9v.8h3.2l-2.2,2.4h-5.9v14.8h5.9l2.2-2.4v-2.9h2.6l1.1-1.2v6.5h5.9l2.2-2.4v-2.9h2.6l1.1-1.2v6.5h5.9l2.2-2.4v-2.9h2.6l6-6.6v-14.8l-4.5,5ZM215.2,120.4h-5.9l2.2-2.4h5.9l-2.2,2.4ZM227,120.4h-5.9l2.2-2.4h5.9l-2.2,2.4Z"/>
  </g>
  <g>
    <g>
      <g>
        <polygon class="st5" points="31 63.7 20.9 53.6 15.1 53.6 25.4 63.6 19.2 70.3 25 70.3 31 63.7"/>
        <polygon class="st5" points="14.3 75.6 20.2 75.6 22.4 73.2 16.5 73.2 14.3 75.6"/>
      </g>
      <g>
        <polygon class="st5" points="54.5 63.7 44.5 53.6 38.7 53.6 48.9 63.6 42.7 70.3 48.5 70.3 54.5 63.7"/>
        <polygon class="st5" points="37.8 75.6 43.7 75.6 45.9 73.2 40 73.2 37.8 75.6"/>
      </g>
      <g>
        <polygon class="st5" points="42.7 63.7 32.7 53.6 26.9 53.6 37.2 63.6 31 70.3 36.8 70.3 42.7 63.7"/>
        <polygon class="st5" points="26 75.6 32 75.6 34.2 73.2 28.3 73.2 26 75.6"/>
      </g>
    </g>
    <path class="st13" d="M50,68.7l-1.5,1.6h-5.8l6.2-6.7h0s-10.3-10-10.3-10v6l4,4.1-4,4.5h0l-.3.3-1.7,1.8h-5.8l6.2-6.7h0s-10.3-10-10.3-10v6l4,4.1-4,4.5h0l-.5.6-1.4,1.5h-5.8l6.2-6.7h0s-10.3-10-10.3-10v14.8l4,3.9v.8h3.2l-2.2,2.4h-5.9v14.8h5.9l2.2-2.4v-2.9h2.6l1.1-1.2v6.5h5.9l2.2-2.4v-2.9h2.6l1.1-1.2v6.5h5.9l2.2-2.4v-2.9h2.6l6-6.6v-14.8l-4.5,5ZM32,75.6h-5.9l2.2-2.4h5.9l-2.2,2.4ZM43.7,75.6h-5.9l2.2-2.4h5.9l-2.2,2.4Z"/>
  </g>
  <g>
    <g>
      <g>
        <polygon class="st5" points="214.2 63.7 204.2 53.6 198.4 53.6 208.6 63.6 202.4 70.3 208.2 70.3 214.2 63.7"/>
        <polygon class="st5" points="197.5 75.6 203.4 75.6 205.6 73.2 199.7 73.2 197.5 75.6"/>
      </g>
      <g>
        <polygon class="st5" points="237.7 63.7 227.7 53.6 221.9 53.6 232.2 63.6 226 70.3 231.8 70.3 237.7 63.7"/>
        <polygon class="st5" points="221 75.6 227 75.6 229.2 73.2 223.3 73.2 221 75.6"/>
      </g>
      <g>
        <polygon class="st5" points="226 63.7 216 53.6 210.2 53.6 220.4 63.6 214.2 70.3 220 70.3 226 63.7"/>
        <polygon class="st5" points="209.3 75.6 215.2 75.6 217.4 73.2 211.5 73.2 209.3 75.6"/>
      </g>
    </g>
    <path class="st13" d="M233.3,68.7l-1.5,1.6h-5.8l6.2-6.7h0s-10.3-10-10.3-10v6l4,4.1-4,4.5h0l-.3.3-1.7,1.8h-5.8l6.2-6.7h0s-10.3-10-10.3-10v6l4,4.1-4,4.5h0l-.5.6-1.4,1.5h-5.8l6.2-6.7h0s-10.3-10-10.3-10v14.8l4,3.9v.8h3.2l-2.2,2.4h-5.9v14.8h5.9l2.2-2.4v-2.9h2.6l1.1-1.2v6.5h5.9l2.2-2.4v-2.9h2.6l1.1-1.2v6.5h5.9l2.2-2.4v-2.9h2.6l6-6.6v-14.8l-4.5,5ZM215.2,75.6h-5.9l2.2-2.4h5.9l-2.2,2.4ZM227,75.6h-5.9l2.2-2.4h5.9l-2.2,2.4Z"/>
  </g>
  <g>
    <g>
      <g>
        <polygon class="st9" points="76.8 63.7 66.7 53.6 60.9 53.6 71.2 63.6 65 70.3 70.8 70.3 76.8 63.7"/>
        <polygon class="st9" points="60.1 75.6 66 75.6 68.2 73.2 62.3 73.2 60.1 75.6"/>
      </g>
      <g>
        <polygon class="st9" points="100.3 63.7 90.3 53.6 84.5 53.6 94.8 63.6 88.5 70.3 94.3 70.3 100.3 63.7"/>
        <polygon class="st9" points="83.6 75.6 89.6 75.6 91.7 73.2 85.9 73.2 83.6 75.6"/>
      </g>
      <g>
        <polygon class="st9" points="88.5 63.7 78.5 53.6 72.7 53.6 83 63.6 76.8 70.3 82.6 70.3 88.5 63.7"/>
        <polygon class="st9" points="71.8 75.6 77.8 75.6 80 73.2 74.1 73.2 71.8 75.6"/>
      </g>
    </g>
    <path class="st2" d="M95.8,68.7l-1.5,1.6h-5.8l6.2-6.7h0s-10.3-10-10.3-10v6l4,4.1-4,4.5h0l-.3.3-1.7,1.8h-5.8l6.2-6.7h0s-10.3-10-10.3-10v6l4,4.1-4,4.5h0l-.5.6-1.4,1.5h-5.8l6.2-6.7h0s-10.3-10-10.3-10v14.8l4,3.9v.8h3.2l-2.2,2.4h-5.9v14.8h5.9l2.2-2.4v-2.9h2.6l1.1-1.2v6.5h5.9l2.2-2.4v-2.9h2.6l1.1-1.2v6.5h5.9l2.2-2.4v-2.9h2.6l6-6.6v-14.8l-4.5,5ZM77.8,75.6h-5.9l2.2-2.4h5.9l-2.2,2.4ZM89.6,75.6h-5.9l2.2-2.4h5.9l-2.2,2.4Z"/>
  </g>
  <g>
    <g>
      <g>
        <polygon class="st2" points="122.6 63.7 112.6 53.6 106.8 53.6 117 63.6 110.8 70.3 116.6 70.3 122.6 63.7"/>
        <polygon class="st2" points="105.9 75.6 111.8 75.6 114 73.2 108.1 73.2 105.9 75.6"/>
      </g>
      <g>
        <polygon class="st2" points="146.1 63.7 136.1 53.6 130.3 53.6 140.6 63.6 134.3 70.3 140.2 70.3 146.1 63.7"/>
        <polygon class="st2" points="129.4 75.6 135.4 75.6 137.5 73.2 131.7 73.2 129.4 75.6"/>
      </g>
      <g>
        <polygon class="st2" points="134.3 63.7 124.3 53.6 118.5 53.6 128.8 63.6 122.6 70.3 128.4 70.3 134.3 63.7"/>
        <polygon class="st2" points="117.7 75.6 123.6 75.6 125.8 73.2 119.9 73.2 117.7 75.6"/>
      </g>
    </g>
    <path class="st13" d="M141.6,68.7l-1.5,1.6h-5.8l6.2-6.7h0s-10.3-10-10.3-10v6l4,4.1-4,4.5h0l-.3.3-1.7,1.8h-5.8l6.2-6.7h0s-10.3-10-10.3-10v6l4,4.1-4,4.5h0l-.5.6-1.4,1.5h-5.8l6.2-6.7h0s-10.3-10-10.3-10v14.8l4,3.9v.8h3.2l-2.2,2.4h-5.9v14.8h5.9l2.2-2.4v-2.9h2.6l1.1-1.2v6.5h5.9l2.2-2.4v-2.9h2.6l1.1-1.2v6.5h5.9l2.2-2.4v-2.9h2.6l6-6.6v-14.8l-4.5,5ZM123.6,75.6h-5.9l2.2-2.4h5.9l-2.2,2.4ZM135.4,75.6h-5.9l2.2-2.4h5.9l-2.2,2.4Z"/>
  </g>
  <g>
    <g>
      <g>
        <polygon class="st4" points="168.4 63.7 158.4 53.6 152.6 53.6 162.8 63.6 156.6 70.3 162.4 70.3 168.4 63.7"/>
        <polygon class="st4" points="151.7 75.6 157.6 75.6 159.8 73.2 153.9 73.2 151.7 75.6"/>
      </g>
      <g>
        <polygon class="st4" points="191.9 63.7 181.9 53.6 176.1 53.6 186.4 63.6 180.2 70.3 186 70.3 191.9 63.7"/>
        <polygon class="st4" points="175.2 75.6 181.2 75.6 183.4 73.2 177.5 73.2 175.2 75.6"/>
      </g>
      <g>
        <polygon class="st4" points="180.2 63.7 170.1 53.6 164.3 53.6 174.6 63.6 168.4 70.3 174.2 70.3 180.2 63.7"/>
        <polygon class="st4" points="163.5 75.6 169.4 75.6 171.6 73.2 165.7 73.2 163.5 75.6"/>
      </g>
    </g>
    <path class="st9" d="M187.4,68.7l-1.5,1.6h-5.8l6.2-6.7h0s-10.3-10-10.3-10v6l4,4.1-4,4.5h0l-.3.3-1.7,1.8h-5.8l6.2-6.7h0s-10.3-10-10.3-10v6l4,4.1-4,4.5h0l-.5.6-1.4,1.5h-5.8l6.2-6.7h0s-10.3-10-10.3-10v14.8l4,3.9v.8h3.2l-2.2,2.4h-5.9v14.8h5.9l2.2-2.4v-2.9h2.6l1.1-1.2v6.5h5.9l2.2-2.4v-2.9h2.6l1.1-1.2v6.5h5.9l2.2-2.4v-2.9h2.6l6-6.6v-14.8l-4.5,5ZM169.4,75.6h-5.9l2.2-2.4h5.9l-2.2,2.4ZM181.2,75.6h-5.9l2.2-2.4h5.9l-2.2,2.4Z"/>
  </g>
  <circle class="st9" cx="-280.6" cy="222.5" r="20.1"/>
  <circle class="st12" cx="-230.9" cy="222.5" r="20.1"/>
  <circle class="st11" cx="-181.3" cy="222.5" r="20.1"/>
  <circle class="st4" cx="-280.6" cy="-32" r="20.1"/>
  <circle class="st17" cx="-230.9" cy="-32" r="20.1"/>
  <circle class="st3" cx="-181.3" cy="-32" r="20.1"/>
  <circle class="st6" cx="-136.4" cy="-33.9" r="20.1"/>
  <circle class="st13" cx="-280.6" cy="18.9" r="20.1"/>
  <circle class="st14" cx="-230.9" cy="18.9" r="20.1"/>
  <circle class="st8" cx="-181.3" cy="18.9" r="20.1"/>
  <circle class="st2" cx="-280.6" cy="120.7" r="20.1"/>
  <circle class="st16" cx="-230.9" cy="120.7" r="20.1"/>
  <circle class="st0" cx="-181.3" cy="120.7" r="20.1"/>
  <circle class="st5" cx="-280.6" cy="69.8" r="20.1"/>
  <circle class="st1" cx="-278.5" cy="170.1" r="20.1"/>
  <circle class="st10" cx="-228.8" cy="170.1" r="20.1"/>
  <circle class="st15" cx="-179.1" cy="170.1" r="20.1"/>
</svg>